# Goxel 0.10.8
v -3 -2 0 1.000000 1.000000 1.000000
v -2 -2 0 1.000000 1.000000 1.000000
v -2 -2 1 1.000000 1.000000 1.000000
v -3 -2 1 1.000000 1.000000 1.000000
v -3 -1 0 1.000000 1.000000 1.000000
v -2 -1 0 1.000000 1.000000 1.000000
v -2 -1 1 1.000000 1.000000 1.000000
v -3 -1 1 1.000000 1.000000 1.000000
v -1 -2 0 1.000000 1.000000 1.000000
v 0 -2 0 1.000000 1.000000 1.000000
v 0 -2 1 1.000000 1.000000 1.000000
v -1 -2 1 1.000000 1.000000 1.000000
v -1 -1 0 1.000000 1.000000 1.000000
v 0 -1 0 1.000000 1.000000 1.000000
v 0 -1 1 1.000000 1.000000 1.000000
v -1 -1 1 1.000000 1.000000 1.000000
v -3 0 0 1.000000 1.000000 1.000000
v -2 0 0 1.000000 1.000000 1.000000
v -2 0 1 1.000000 1.000000 1.000000
v -3 0 1 1.000000 1.000000 1.000000
v -1 0 0 1.000000 1.000000 1.000000
v 0 0 0 1.000000 1.000000 1.000000
v 0 0 1 1.000000 1.000000 1.000000
v -1 0 1 1.000000 1.000000 1.000000
v 0 -1 2 1.000000 1.000000 1.000000
v -1 -1 2 1.000000 1.000000 1.000000
v 0 0 2 1.000000 1.000000 1.000000
v -1 0 2 1.000000 1.000000 1.000000
v -3 -1 2 1.000000 1.000000 1.000000
v -2 -1 2 1.000000 1.000000 1.000000
v -2 -1 3 1.000000 1.000000 1.000000
v -3 -1 3 1.000000 1.000000 1.000000
v -3 0 2 1.000000 1.000000 1.000000
v -2 0 2 1.000000 1.000000 1.000000
v -3 0 3 1.000000 1.000000 1.000000
v -1 -1 3 1.000000 1.000000 1.000000
v 0 -1 3 1.000000 1.000000 1.000000
v 0 0 3 1.000000 1.000000 1.000000
v -4 -2 3 1.000000 1.000000 1.000000
v -3 -2 3 1.000000 1.000000 1.000000
v -3 -2 4 1.000000 1.000000 1.000000
v -4 -2 4 1.000000 1.000000 1.000000
v -4 -1 3 1.000000 1.000000 1.000000
v -3 -1 4 1.000000 1.000000 1.000000
v -4 -1 4 1.000000 1.000000 1.000000
v -4 0 3 1.000000 1.000000 1.000000
v -3 0 4 1.000000 1.000000 1.000000
v -4 0 4 1.000000 1.000000 1.000000
v -2 -1 4 1.000000 1.000000 1.000000
v -2 0 4 1.000000 1.000000 1.000000
v -1 -1 4 1.000000 1.000000 1.000000
v -1 0 4 1.000000 1.000000 1.000000
v 0 -1 4 1.000000 1.000000 1.000000
v 0 0 4 1.000000 1.000000 1.000000
v -4 -3 4 0.466667 0.000000 0.898039
v -3 -3 4 0.466667 0.000000 0.898039
v -3 -3 5 0.466667 0.000000 0.898039
v -4 -3 5 0.466667 0.000000 0.898039
v -4 -2 4 0.466667 0.000000 0.898039
v -3 -2 4 0.466667 0.000000 0.898039
v -3 -2 5 0.466667 0.000000 0.898039
v -4 -2 5 0.466667 0.000000 0.898039
v -3 -1 4 0.466667 0.000000 0.898039
v -4 -1 4 0.466667 0.000000 0.898039
v -4 -1 5 0.466667 0.000000 0.898039
v -3 -1 5 0.466667 0.000000 0.898039
v -1 -2 6 0.466667 0.000000 0.898039
v 0 -2 6 0.466667 0.000000 0.898039
v 0 -2 7 0.466667 0.000000 0.898039
v -1 -2 7 0.466667 0.000000 0.898039
v -1 -1 6 0.466667 0.000000 0.898039
v 0 -1 6 0.466667 0.000000 0.898039
v 0 -1 7 0.466667 0.000000 0.898039
v -1 -1 7 0.466667 0.000000 0.898039
v -2 -1 6 1.000000 1.000000 1.000000
v -1 -1 6 1.000000 1.000000 1.000000
v -1 -1 7 1.000000 1.000000 1.000000
v -2 -1 7 1.000000 1.000000 1.000000
v -2 0 6 1.000000 1.000000 1.000000
v -1 0 6 1.000000 1.000000 1.000000
v -1 0 7 1.000000 1.000000 1.000000
v -2 0 7 1.000000 1.000000 1.000000
v 0 0 6 1.000000 1.000000 1.000000
v 0 -1 6 1.000000 1.000000 1.000000
v 0 0 7 1.000000 1.000000 1.000000
v 0 -1 7 1.000000 1.000000 1.000000
v 0 -1 8 1.000000 1.000000 1.000000
v -1 -1 8 1.000000 1.000000 1.000000
v 0 0 8 1.000000 1.000000 1.000000
v -1 0 8 1.000000 1.000000 1.000000
v -3 -1 8 1.000000 1.000000 1.000000
v -2 -1 8 1.000000 1.000000 1.000000
v -2 -1 9 1.000000 1.000000 1.000000
v -3 -1 9 1.000000 1.000000 1.000000
v -3 0 8 1.000000 1.000000 1.000000
v -2 0 8 1.000000 1.000000 1.000000
v -2 0 9 1.000000 1.000000 1.000000
v -3 0 9 1.000000 1.000000 1.000000
v 0 -1 9 1.000000 1.000000 1.000000
v -1 -1 9 1.000000 1.000000 1.000000
v 0 0 9 1.000000 1.000000 1.000000
v -1 0 9 1.000000 1.000000 1.000000
v 1 -1 3 1.000000 1.000000 1.000000
v 1 -1 4 1.000000 1.000000 1.000000
v 1 0 3 1.000000 1.000000 1.000000
v 1 0 4 1.000000 1.000000 1.000000
v 0 -3 4 0.466667 0.000000 0.898039
v 1 -3 4 0.466667 0.000000 0.898039
v 1 -3 5 0.466667 0.000000 0.898039
v 0 -3 5 0.466667 0.000000 0.898039
v 0 -2 4 0.466667 0.000000 0.898039
v 1 -2 4 0.466667 0.000000 0.898039
v 1 -2 5 0.466667 0.000000 0.898039
v 0 -2 5 0.466667 0.000000 0.898039
v 0 -2 4 1.000000 1.000000 1.000000
v 1 -2 4 1.000000 1.000000 1.000000
v 1 -2 5 1.000000 1.000000 1.000000
v 1 -1 5 1.000000 1.000000 1.000000
v 0 -1 5 1.000000 1.000000 1.000000
v 0 -2 5 1.000000 1.000000 1.000000
v 0 0 5 1.000000 1.000000 1.000000
v 1 0 5 1.000000 1.000000 1.000000
v -2 1 0 1.000000 1.000000 1.000000
v -3 1 0 1.000000 1.000000 1.000000
v -3 1 1 1.000000 1.000000 1.000000
v -2 1 1 1.000000 1.000000 1.000000
v 0 1 0 1.000000 1.000000 1.000000
v -1 1 0 1.000000 1.000000 1.000000
v -1 1 1 1.000000 1.000000 1.000000
v 0 1 1 1.000000 1.000000 1.000000
v -3 1 2 1.000000 1.000000 1.000000
v -2 1 2 1.000000 1.000000 1.000000
v -1 1 2 1.000000 1.000000 1.000000
v 0 1 2 1.000000 1.000000 1.000000
v -3 1 3 1.000000 1.000000 1.000000
v -2 1 3 1.000000 1.000000 1.000000
v -1 1 3 1.000000 1.000000 1.000000
v 0 1 3 1.000000 1.000000 1.000000
v -4 1 3 1.000000 1.000000 1.000000
v -4 1 4 1.000000 1.000000 1.000000
v -3 1 4 1.000000 1.000000 1.000000
v -2 1 4 1.000000 1.000000 1.000000
v -1 1 4 1.000000 1.000000 1.000000
v 0 1 4 1.000000 1.000000 1.000000
v -2 0 5 1.000000 1.000000 1.000000
v -3 0 5 1.000000 1.000000 1.000000
v -3 1 5 1.000000 1.000000 1.000000
v -1 0 5 1.000000 1.000000 1.000000
v -2 1 5 1.000000 1.000000 1.000000
v -1 1 5 1.000000 1.000000 1.000000
v 0 1 5 1.000000 1.000000 1.000000
v -2 2 4 1.000000 1.000000 1.000000
v -3 2 4 1.000000 1.000000 1.000000
v -3 2 5 1.000000 1.000000 1.000000
v -2 2 5 1.000000 1.000000 1.000000
v -3 0 5 0.466667 0.000000 0.898039
v -2 0 5 0.466667 0.000000 0.898039
v -2 0 6 0.466667 0.000000 0.898039
v -3 0 6 0.466667 0.000000 0.898039
v -2 1 5 0.466667 0.000000 0.898039
v -3 1 5 0.466667 0.000000 0.898039
v -3 1 6 0.466667 0.000000 0.898039
v -2 1 6 0.466667 0.000000 0.898039
v -1 1 6 1.000000 1.000000 1.000000
v 0 1 6 1.000000 1.000000 1.000000
v -1 2 5 1.000000 1.000000 1.000000
v -2 2 6 1.000000 1.000000 1.000000
v -1 2 6 1.000000 1.000000 1.000000
v -2 1 6 1.000000 1.000000 1.000000
v -3 0 6 1.000000 1.000000 1.000000
v -3 0 7 1.000000 1.000000 1.000000
v -3 1 6 1.000000 1.000000 1.000000
v -3 1 7 1.000000 1.000000 1.000000
v -2 1 7 1.000000 1.000000 1.000000
v -1 1 7 1.000000 1.000000 1.000000
v 0 1 7 1.000000 1.000000 1.000000
v 0 2 6 1.000000 1.000000 1.000000
v -1 2 7 1.000000 1.000000 1.000000
v 0 2 7 1.000000 1.000000 1.000000
v -3 1 8 1.000000 1.000000 1.000000
v -2 1 8 1.000000 1.000000 1.000000
v -1 1 8 1.000000 1.000000 1.000000
v 0 1 8 1.000000 1.000000 1.000000
v -3 1 9 1.000000 1.000000 1.000000
v -2 1 9 1.000000 1.000000 1.000000
v 0 1 8 0.466667 0.000000 0.898039
v -1 1 8 0.466667 0.000000 0.898039
v -1 1 9 0.466667 0.000000 0.898039
v 0 1 9 0.466667 0.000000 0.898039
v 0 0 9 0.466667 0.000000 0.898039
v -1 0 9 0.466667 0.000000 0.898039
v 0 0 8 0.466667 0.000000 0.898039
v -1 0 8 0.466667 0.000000 0.898039
v 1 1 3 1.000000 1.000000 1.000000
v 1 1 4 1.000000 1.000000 1.000000
vn 0 -1 0
vn 0 0 -1
vn 0 0 1
vn 1 0 0
vn -1 0 0
vn 0 1 0
f 1//1 2//1 3//1 4//1
f 1//2 5//2 6//2 2//2
f 3//3 7//3 8//3 4//3
f 2//4 6//4 7//4 3//4
f 1//5 4//5 8//5 5//5
f 9//1 10//1 11//1 12//1
f 9//2 13//2 14//2 10//2
f 11//3 15//3 16//3 12//3
f 10//4 14//4 15//4 11//4
f 9//5 12//5 16//5 13//5
f 5//2 17//2 18//2 6//2
f 7//3 19//3 20//3 8//3
f 6//4 18//4 19//4 7//4
f 5//5 8//5 20//5 17//5
f 13//2 21//2 22//2 14//2
f 14//4 22//4 23//4 15//4
f 13//5 16//5 24//5 21//5
f 16//1 15//1 25//1 26//1
f 15//4 23//4 27//4 25//4
f 16//5 26//5 28//5 24//5
f 29//1 30//1 31//1 32//1
f 29//2 33//2 34//2 30//2
f 29//5 32//5 35//5 33//5
f 30//1 26//1 36//1 31//1
f 30//2 34//2 28//2 26//2
f 26//1 25//1 37//1 36//1
f 25//4 27//4 38//4 37//4
f 39//1 40//1 41//1 42//1
f 39//2 43//2 32//2 40//2
f 40//4 32//4 44//4 41//4
f 39//5 42//5 45//5 43//5
f 43//2 46//2 35//2 32//2
f 44//3 47//3 48//3 45//3
f 43//5 45//5 48//5 46//5
f 32//1 31//1 49//1 44//1
f 49//3 50//3 47//3 44//3
f 31//1 36//1 51//1 49//1
f 51//3 52//3 50//3 49//3
f 36//1 37//1 53//1 51//1
f 53//3 54//3 52//3 51//3
f 55//1 56//1 57//1 58//1
f 55//2 59//2 60//2 56//2
f 57//3 61//3 62//3 58//3
f 56//4 60//4 61//4 57//4
f 55//5 58//5 62//5 59//5
f 63//6 64//6 65//6 66//6
f 61//3 66//3 65//3 62//3
f 60//4 63//4 66//4 61//4
f 59//5 62//5 65//5 64//5
f 67//1 68//1 69//1 70//1
f 67//2 71//2 72//2 68//2
f 69//3 73//3 74//3 70//3
f 68//4 72//4 73//4 69//4
f 67//5 70//5 74//5 71//5
f 75//1 76//1 77//1 78//1
f 75//2 79//2 80//2 76//2
f 77//3 81//3 82//3 78//3
f 75//5 78//5 82//5 79//5
f 76//2 80//2 83//2 84//2
f 84//4 83//4 85//4 86//4
f 77//1 86//1 87//1 88//1
f 86//4 85//4 89//4 87//4
f 77//5 88//5 90//5 81//5
f 91//1 92//1 93//1 94//1
f 91//2 95//2 96//2 92//2
f 93//3 97//3 98//3 94//3
f 92//4 96//4 97//4 93//4
f 91//5 94//5 98//5 95//5
f 88//1 87//1 99//1 100//1
f 99//3 101//3 102//3 100//3
f 87//4 89//4 101//4 99//4
f 88//5 100//5 102//5 90//5
f 37//1 103//1 104//1 53//1
f 37//2 38//2 105//2 103//2
f 103//4 105//4 106//4 104//4
f 107//1 108//1 109//1 110//1
f 107//2 111//2 112//2 108//2
f 109//3 113//3 114//3 110//3
f 108//4 112//4 113//4 109//4
f 107//5 110//5 114//5 111//5
f 115//2 53//2 104//2 116//2
f 117//3 118//3 119//3 120//3
f 116//4 104//4 118//4 117//4
f 115//5 120//5 119//5 53//5
f 106//6 54//6 121//6 122//6
f 118//3 122//3 121//3 119//3
f 104//4 106//4 122//4 118//4
f 53//5 119//5 121//5 54//5
f 123//6 124//6 125//6 126//6
f 17//2 124//2 123//2 18//2
f 18//4 123//4 126//4 19//4
f 17//5 20//5 125//5 124//5
f 127//6 128//6 129//6 130//6
f 21//2 128//2 127//2 22//2
f 22//4 127//4 130//4 23//4
f 21//5 24//5 129//5 128//5
f 20//1 19//1 34//1 33//1
f 126//6 125//6 131//6 132//6
f 19//4 126//4 132//4 34//4
f 20//5 33//5 131//5 125//5
f 130//6 129//6 133//6 134//6
f 23//4 130//4 134//4 27//4
f 24//5 28//5 133//5 129//5
f 132//6 131//6 135//6 136//6
f 33//5 35//5 135//5 131//5
f 133//6 132//6 136//6 137//6
f 34//2 132//2 133//2 28//2
f 134//6 133//6 137//6 138//6
f 27//4 134//4 138//4 38//4
f 135//6 139//6 140//6 141//6
f 46//2 139//2 135//2 35//2
f 47//3 141//3 140//3 48//3
f 46//5 48//5 140//5 139//5
f 136//6 135//6 141//6 142//6
f 137//6 136//6 142//6 143//6
f 138//6 137//6 143//6 144//6
f 47//1 50//1 145//1 146//1
f 47//5 146//5 147//5 141//5
f 50//1 52//1 148//1 145//1
f 143//6 142//6 149//6 150//6
f 52//1 54//1 121//1 148//1
f 144//6 143//6 150//6 151//6
f 54//4 144//4 151//4 121//4
f 152//6 153//6 154//6 155//6
f 141//2 153//2 152//2 142//2
f 149//3 155//3 154//3 147//3
f 142//4 152//4 155//4 149//4
f 141//5 147//5 154//5 153//5
f 156//1 157//1 158//1 159//1
f 160//6 161//6 162//6 163//6
f 156//5 159//5 162//5 161//5
f 145//1 148//1 80//1 79//1
f 148//1 121//1 83//1 80//1
f 151//6 150//6 164//6 165//6
f 121//4 151//4 165//4 83//4
f 166//6 155//6 167//6 168//6
f 149//2 155//2 166//2 150//2
f 164//3 168//3 167//3 169//3
f 150//4 166//4 168//4 164//4
f 149//5 169//5 167//5 155//5
f 170//1 79//1 82//1 171//1
f 169//6 172//6 173//6 174//6
f 170//5 171//5 173//5 172//5
f 164//6 169//6 174//6 175//6
f 81//3 175//3 174//3 82//3
f 83//4 165//4 176//4 85//4
f 177//6 168//6 178//6 179//6
f 164//2 168//2 177//2 165//2
f 176//3 179//3 178//3 175//3
f 165//4 177//4 179//4 176//4
f 164//5 175//5 178//5 168//5
f 171//1 82//1 96//1 95//1
f 174//6 173//6 180//6 181//6
f 82//4 174//4 181//4 96//4
f 171//5 95//5 180//5 173//5
f 176//6 175//6 182//6 183//6
f 85//4 176//4 183//4 89//4
f 81//5 90//5 182//5 175//5
f 181//6 180//6 184//6 185//6
f 97//3 185//3 184//3 98//3
f 96//4 181//4 185//4 97//4
f 95//5 98//5 184//5 180//5
f 186//6 187//6 188//6 189//6
f 190//3 189//3 188//3 191//3
f 192//4 186//4 189//4 190//4
f 193//5 191//5 188//5 187//5
f 194//6 138//6 144//6 195//6
f 38//2 138//2 194//2 105//2
f 106//3 195//3 144//3 54//3
f 105//4 194//4 195//4 106//4
